<svg width="81" height="16" viewBox="0 0 81 16" fill="none" xmlns="http://www.w3.org/2000/svg">
<path d="M6.11914 15H4.30273V2.95898L0.660156 4.29688V2.65625L5.83594 0.712891H6.11914V15ZM20.0352 4.49219C20.0352 5.20182 19.8464 5.83333 19.4688 6.38672C19.0977 6.9401 18.5931 7.37305 17.9551 7.68555C18.6973 8.00456 19.2832 8.47005 19.7129 9.08203C20.1491 9.69401 20.3672 10.3874 20.3672 11.1621C20.3672 12.3926 19.9505 13.3724 19.1172 14.1016C18.2904 14.8307 17.1999 15.1953 15.8457 15.1953C14.4785 15.1953 13.3815 14.8307 12.5547 14.1016C11.7344 13.3659 11.3242 12.3861 11.3242 11.1621C11.3242 10.3939 11.5326 9.70052 11.9492 9.08203C12.3724 8.46354 12.9551 7.99479 13.6973 7.67578C13.0658 7.36328 12.5677 6.93034 12.2031 6.37695C11.8385 5.82357 11.6562 5.19531 11.6562 4.49219C11.6562 3.29427 12.0404 2.34375 12.8086 1.64062C13.5768 0.9375 14.5892 0.585938 15.8457 0.585938C17.0957 0.585938 18.1048 0.9375 18.873 1.64062C19.6478 2.34375 20.0352 3.29427 20.0352 4.49219ZM18.5605 11.123C18.5605 10.3288 18.3066 9.68099 17.7988 9.17969C17.2975 8.67839 16.64 8.42773 15.8262 8.42773C15.0124 8.42773 14.3581 8.67513 13.8633 9.16992C13.375 9.66471 13.1309 10.3158 13.1309 11.123C13.1309 11.9303 13.3685 12.5651 13.8438 13.0273C14.3255 13.4896 14.9928 13.7207 15.8457 13.7207C16.6921 13.7207 17.3561 13.4896 17.8379 13.0273C18.3197 12.5586 18.5605 11.9238 18.5605 11.123ZM15.8457 2.07031C15.1361 2.07031 14.5599 2.29167 14.1172 2.73438C13.681 3.17057 13.4629 3.76628 13.4629 4.52148C13.4629 5.24414 13.6777 5.83008 14.1074 6.2793C14.5436 6.72201 15.123 6.94336 15.8457 6.94336C16.5684 6.94336 17.1445 6.72201 17.5742 6.2793C18.0104 5.83008 18.2285 5.24414 18.2285 4.52148C18.2285 3.79883 18.0039 3.20964 17.5547 2.75391C17.1055 2.29818 16.5358 2.07031 15.8457 2.07031ZM35.7676 15H33.9512V11.1719C33.1569 11.3802 32.3431 11.4844 31.5098 11.4844C30.1882 11.4844 29.179 11.1458 28.4824 10.4688C27.7923 9.79167 27.4408 8.82812 27.4277 7.57812V4.42383H29.2344V7.63672C29.2669 9.21224 30.0254 10 31.5098 10C32.3431 10 33.1569 9.89583 33.9512 9.6875V4.43359H35.7676V15ZM45.1914 15C45.0872 14.7917 45.0026 14.4206 44.9375 13.8867C44.0977 14.7591 43.0951 15.1953 41.9297 15.1953C40.888 15.1953 40.0319 14.9023 39.3613 14.3164C38.6973 13.724 38.3652 12.9753 38.3652 12.0703C38.3652 10.9701 38.7819 10.1172 39.6152 9.51172C40.4551 8.89974 41.6335 8.59375 43.1504 8.59375H44.9082V7.76367C44.9082 7.13216 44.7194 6.63086 44.3418 6.25977C43.9642 5.88216 43.4076 5.69336 42.6719 5.69336C42.0273 5.69336 41.487 5.85612 41.0508 6.18164C40.6146 6.50716 40.3965 6.90104 40.3965 7.36328H38.5801C38.5801 6.83594 38.7656 6.32812 39.1367 5.83984C39.5143 5.34505 40.0221 4.95443 40.6602 4.66797C41.3047 4.38151 42.0111 4.23828 42.7793 4.23828C43.9967 4.23828 44.9505 4.54427 45.6406 5.15625C46.3307 5.76172 46.6888 6.59831 46.7148 7.66602V12.5293C46.7148 13.4993 46.8385 14.2708 47.0859 14.8438V15H45.1914ZM42.1934 13.623C42.7598 13.623 43.2969 13.4766 43.8047 13.1836C44.3125 12.8906 44.6803 12.5098 44.9082 12.041V9.87305H43.4922C41.2786 9.87305 40.1719 10.5208 40.1719 11.8164C40.1719 12.3828 40.3607 12.8255 40.7383 13.1445C41.1159 13.4635 41.6009 13.623 42.1934 13.623ZM53.7852 13.7207C54.4297 13.7207 54.9928 13.5254 55.4746 13.1348C55.9564 12.7441 56.2233 12.2559 56.2754 11.6699H57.9844C57.9518 12.2754 57.7435 12.8516 57.3594 13.3984C56.9753 13.9453 56.4609 14.3815 55.8164 14.707C55.1784 15.0326 54.5013 15.1953 53.7852 15.1953C52.3464 15.1953 51.2005 14.7168 50.3477 13.7598C49.5013 12.7962 49.0781 11.4811 49.0781 9.81445V9.51172C49.0781 8.48307 49.2669 7.56836 49.6445 6.76758C50.0221 5.9668 50.5625 5.34505 51.2656 4.90234C51.9753 4.45964 52.8118 4.23828 53.7754 4.23828C54.9603 4.23828 55.9434 4.5931 56.7246 5.30273C57.5124 6.01237 57.9323 6.93359 57.9844 8.06641H56.2754C56.2233 7.38281 55.9629 6.82292 55.4941 6.38672C55.0319 5.94401 54.459 5.72266 53.7754 5.72266C52.8574 5.72266 52.1445 6.05469 51.6367 6.71875C51.1354 7.3763 50.8848 8.33008 50.8848 9.58008V9.92188C50.8848 11.1393 51.1354 12.0768 51.6367 12.7344C52.138 13.3919 52.8542 13.7207 53.7852 13.7207ZM59.5371 9.61914C59.5371 8.58398 59.7389 7.65299 60.1426 6.82617C60.5527 5.99935 61.1191 5.36133 61.8418 4.91211C62.571 4.46289 63.401 4.23828 64.332 4.23828C65.7708 4.23828 66.9329 4.73633 67.8184 5.73242C68.7103 6.72852 69.1562 8.05339 69.1562 9.70703V9.83398C69.1562 10.8626 68.9577 11.7871 68.5605 12.6074C68.1699 13.4212 67.6068 14.056 66.8711 14.5117C66.1419 14.9674 65.3021 15.1953 64.3516 15.1953C62.9193 15.1953 61.7572 14.6973 60.8652 13.7012C59.9798 12.7051 59.5371 11.3867 59.5371 9.74609V9.61914ZM61.3535 9.83398C61.3535 11.0059 61.6237 11.9466 62.1641 12.6562C62.7109 13.3659 63.4401 13.7207 64.3516 13.7207C65.2695 13.7207 65.9987 13.3626 66.5391 12.6465C67.0794 11.9238 67.3496 10.9147 67.3496 9.61914C67.3496 8.46029 67.0729 7.52279 66.5195 6.80664C65.9727 6.08398 65.2435 5.72266 64.332 5.72266C63.4401 5.72266 62.7207 6.07747 62.1738 6.78711C61.627 7.49674 61.3535 8.51237 61.3535 9.83398ZM71.5879 15V4.43359H75.709C77.1152 4.43359 78.1927 4.68099 78.9414 5.17578C79.6966 5.66406 80.0742 6.38346 80.0742 7.33398C80.0742 7.82227 79.9277 8.26497 79.6348 8.66211C79.3418 9.05273 78.9089 9.35221 78.3359 9.56055C78.974 9.71029 79.485 10.0033 79.8691 10.4395C80.2598 10.8757 80.4551 11.3965 80.4551 12.002C80.4551 12.972 80.097 13.7142 79.3809 14.2285C78.6712 14.7428 77.6654 15 76.3633 15H71.5879ZM73.3945 10.3613V13.5449H76.3828C77.138 13.5449 77.7012 13.4049 78.0723 13.125C78.4499 12.8451 78.6387 12.4512 78.6387 11.9434C78.6387 10.8887 77.8639 10.3613 76.3145 10.3613H73.3945ZM73.3945 8.91602H75.7285C77.4212 8.91602 78.2676 8.42122 78.2676 7.43164C78.2676 6.44206 77.4668 5.93099 75.8652 5.89844H73.3945V8.91602Z" fill="black"/>
</svg>
