<svg width="100" height="21" viewBox="0 0 100 21" fill="none" xmlns="http://www.w3.org/2000/svg">
<path d="M8.80469 5.49219C8.80469 6.20182 8.61589 6.83333 8.23828 7.38672C7.86719 7.9401 7.36263 8.37305 6.72461 8.68555C7.4668 9.00456 8.05273 9.47005 8.48242 10.082C8.91862 10.694 9.13672 11.3874 9.13672 12.1621C9.13672 13.3926 8.72005 14.3724 7.88672 15.1016C7.0599 15.8307 5.9694 16.1953 4.61523 16.1953C3.24805 16.1953 2.15104 15.8307 1.32422 15.1016C0.503906 14.3659 0.09375 13.3861 0.09375 12.1621C0.09375 11.3939 0.302083 10.7005 0.71875 10.082C1.14193 9.46354 1.72461 8.99479 2.4668 8.67578C1.83529 8.36328 1.33724 7.93034 0.972656 7.37695C0.608073 6.82357 0.425781 6.19531 0.425781 5.49219C0.425781 4.29427 0.809896 3.34375 1.57812 2.64062C2.34635 1.9375 3.35872 1.58594 4.61523 1.58594C5.86523 1.58594 6.87435 1.9375 7.64258 2.64062C8.41732 3.34375 8.80469 4.29427 8.80469 5.49219ZM7.33008 12.123C7.33008 11.3288 7.07617 10.681 6.56836 10.1797C6.06706 9.67839 5.40951 9.42773 4.5957 9.42773C3.7819 9.42773 3.1276 9.67513 2.63281 10.1699C2.14453 10.6647 1.90039 11.3158 1.90039 12.123C1.90039 12.9303 2.13802 13.5651 2.61328 14.0273C3.09505 14.4896 3.76237 14.7207 4.61523 14.7207C5.46159 14.7207 6.12565 14.4896 6.60742 14.0273C7.08919 13.5586 7.33008 12.9238 7.33008 12.123ZM4.61523 3.07031C3.9056 3.07031 3.32943 3.29167 2.88672 3.73438C2.45052 4.17057 2.23242 4.76628 2.23242 5.52148C2.23242 6.24414 2.44727 6.83008 2.87695 7.2793C3.31315 7.72201 3.89258 7.94336 4.61523 7.94336C5.33789 7.94336 5.91406 7.72201 6.34375 7.2793C6.77995 6.83008 6.99805 6.24414 6.99805 5.52148C6.99805 4.79883 6.77344 4.20964 6.32422 3.75391C5.875 3.29818 5.30534 3.07031 4.61523 3.07031ZM20.7969 14.7207C21.4414 14.7207 22.0046 14.5254 22.4863 14.1348C22.9681 13.7441 23.235 13.2559 23.2871 12.6699H24.9961C24.9635 13.2754 24.7552 13.8516 24.3711 14.3984C23.987 14.9453 23.4727 15.3815 22.8281 15.707C22.1901 16.0326 21.513 16.1953 20.7969 16.1953C19.3581 16.1953 18.2122 15.7168 17.3594 14.7598C16.513 13.7962 16.0898 12.4811 16.0898 10.8145V10.5117C16.0898 9.48307 16.2786 8.56836 16.6562 7.76758C17.0339 6.9668 17.5742 6.34505 18.2773 5.90234C18.987 5.45964 19.8236 5.23828 20.7871 5.23828C21.972 5.23828 22.9551 5.5931 23.7363 6.30273C24.5241 7.01237 24.944 7.93359 24.9961 9.06641H23.2871C23.235 8.38281 22.9746 7.82292 22.5059 7.38672C22.0436 6.94401 21.4707 6.72266 20.7871 6.72266C19.8691 6.72266 19.1562 7.05469 18.6484 7.71875C18.1471 8.3763 17.8965 9.33008 17.8965 10.5801V10.9219C17.8965 12.1393 18.1471 13.0768 18.6484 13.7344C19.1497 14.3919 19.8659 14.7207 20.7969 14.7207ZM31.4121 16.1953C29.9798 16.1953 28.8145 15.7266 27.916 14.7891C27.0176 13.8451 26.5684 12.5853 26.5684 11.0098V10.6777C26.5684 9.62956 26.7669 8.69531 27.1641 7.875C27.5677 7.04818 28.1276 6.40365 28.8438 5.94141C29.5664 5.47266 30.3477 5.23828 31.1875 5.23828C32.5612 5.23828 33.6289 5.69076 34.3906 6.5957C35.1523 7.50065 35.5332 8.79622 35.5332 10.4824V11.2344H28.375C28.401 12.276 28.7038 13.1191 29.2832 13.7637C29.8691 14.4017 30.6113 14.7207 31.5098 14.7207C32.1478 14.7207 32.6882 14.5905 33.1309 14.3301C33.5736 14.0697 33.9609 13.7246 34.293 13.2949L35.3965 14.1543C34.5111 15.515 33.1829 16.1953 31.4121 16.1953ZM31.1875 6.72266C30.4583 6.72266 29.8464 6.98958 29.3516 7.52344C28.8568 8.05078 28.5508 8.79297 28.4336 9.75H33.7266V9.61328C33.6745 8.69531 33.4271 7.98568 32.9844 7.48438C32.5417 6.97656 31.9427 6.72266 31.1875 6.72266ZM46.2656 16H44.459V11.4883H39.6055V16H37.7891V5.43359H39.6055V10.0137H44.459V5.43359H46.2656V16ZM57.0273 6.89844H53.4824V16H51.6758V6.89844H48.1992V5.43359H57.0273V6.89844ZM66.8613 5.43359V16H65.0449V11.8887H62.3203L59.8301 16H57.877L60.5332 11.6152C59.8561 11.3678 59.3353 10.987 58.9707 10.4727C58.6126 9.95182 58.4336 9.34635 58.4336 8.65625C58.4336 7.69271 58.7949 6.91797 59.5176 6.33203C60.2402 5.73958 61.207 5.4401 62.418 5.43359H66.8613ZM60.25 8.67578C60.25 9.1901 60.4258 9.60677 60.7773 9.92578C61.1289 10.2383 61.5944 10.3978 62.1738 10.4043H65.0449V6.89844H62.4473C61.7767 6.89844 61.2428 7.06445 60.8457 7.39648C60.4486 7.72201 60.25 8.14844 60.25 8.67578ZM74.4004 6.03906C75.7285 6.03906 76.7897 6.48503 77.584 7.37695C78.3848 8.26237 78.7852 9.43099 78.7852 10.8828V11.0488C78.7852 12.0449 78.5931 12.9368 78.209 13.7246C77.8249 14.5059 77.2715 15.1146 76.5488 15.5508C75.8327 15.9805 75.0059 16.1953 74.0684 16.1953C72.6491 16.1953 71.5065 15.7233 70.6406 14.7793C69.7747 13.8288 69.3418 12.556 69.3418 10.9609V10.082C69.3418 7.86198 69.752 6.09766 70.5723 4.78906C71.3991 3.48047 72.6165 2.68294 74.2246 2.39648C75.1361 2.23372 75.7513 2.03516 76.0703 1.80078C76.3893 1.56641 76.5488 1.24414 76.5488 0.833984H78.0332C78.0332 1.64779 77.8477 2.28255 77.4766 2.73828C77.112 3.19401 76.526 3.51628 75.7188 3.70508L74.3711 4.00781C73.2969 4.26172 72.4896 4.69141 71.9492 5.29688C71.4154 5.89583 71.0671 6.69661 70.9043 7.69922C71.8613 6.59245 73.0267 6.03906 74.4004 6.03906ZM74.0488 7.52344C73.1634 7.52344 72.4603 7.82292 71.9395 8.42188C71.4186 9.01432 71.1582 9.83789 71.1582 10.8926V11.0488C71.1582 12.1816 71.4186 13.0801 71.9395 13.7441C72.4668 14.4017 73.1764 14.7305 74.0684 14.7305C74.9668 14.7305 75.6764 14.3984 76.1973 13.7344C76.7181 13.0703 76.9785 12.1003 76.9785 10.8242C76.9785 9.82812 76.7148 9.0306 76.1875 8.43164C75.6667 7.82617 74.9538 7.52344 74.0488 7.52344ZM89.5664 10.834C89.5664 12.4421 89.1986 13.7376 88.4629 14.7207C87.7272 15.7038 86.7311 16.1953 85.4746 16.1953C84.1921 16.1953 83.1829 15.7884 82.4473 14.9746V20.0625H80.6406V5.43359H82.291L82.3789 6.60547C83.1146 5.69401 84.1367 5.23828 85.4453 5.23828C86.7148 5.23828 87.7174 5.7168 88.4531 6.67383C89.1953 7.63086 89.5664 8.96224 89.5664 10.668V10.834ZM87.7598 10.6289C87.7598 9.4375 87.5059 8.49674 86.998 7.80664C86.4902 7.11654 85.7936 6.77148 84.9082 6.77148C83.8145 6.77148 82.9941 7.25651 82.4473 8.22656V13.2754C82.9876 14.2389 83.8145 14.7207 84.9277 14.7207C85.7936 14.7207 86.4805 14.3789 86.9883 13.6953C87.5026 13.0052 87.7598 11.9831 87.7598 10.6289ZM99.9473 5.43359V16H98.1309V11.8887H95.4062L92.916 16H90.9629L93.6191 11.6152C92.9421 11.3678 92.4212 10.987 92.0566 10.4727C91.6986 9.95182 91.5195 9.34635 91.5195 8.65625C91.5195 7.69271 91.8809 6.91797 92.6035 6.33203C93.3262 5.73958 94.293 5.4401 95.5039 5.43359H99.9473ZM93.3359 8.67578C93.3359 9.1901 93.5117 9.60677 93.8633 9.92578C94.2148 10.2383 94.6803 10.3978 95.2598 10.4043H98.1309V6.89844H95.5332C94.8626 6.89844 94.3288 7.06445 93.9316 7.39648C93.5345 7.72201 93.3359 8.14844 93.3359 8.67578Z" fill="black"/>
</svg>
