<svg width="116" height="20" viewBox="0 0 116 20" fill="none" xmlns="http://www.w3.org/2000/svg">
<path d="M0.898438 9.83398V9.60938C0.898438 8.84766 1.00911 8.14128 1.23047 7.49023C1.45182 6.83268 1.77083 6.26302 2.1875 5.78125C2.60417 5.29297 3.10872 4.91536 3.70117 4.64844C4.29362 4.375 4.95768 4.23828 5.69336 4.23828C6.43555 4.23828 7.10286 4.375 7.69531 4.64844C8.29427 4.91536 8.80208 5.29297 9.21875 5.78125C9.64193 6.26302 9.96419 6.83268 10.1855 7.49023C10.4069 8.14128 10.5176 8.84766 10.5176 9.60938V9.83398C10.5176 10.5957 10.4069 11.3021 10.1855 11.9531C9.96419 12.6042 9.64193 13.1738 9.21875 13.6621C8.80208 14.1439 8.29753 14.5215 7.70508 14.7949C7.11914 15.0618 6.45508 15.1953 5.71289 15.1953C4.9707 15.1953 4.30339 15.0618 3.71094 14.7949C3.11849 14.5215 2.61068 14.1439 2.1875 13.6621C1.77083 13.1738 1.45182 12.6042 1.23047 11.9531C1.00911 11.3021 0.898438 10.5957 0.898438 9.83398ZM2.70508 9.60938V9.83398C2.70508 10.3613 2.76693 10.8594 2.89062 11.3281C3.01432 11.7904 3.19987 12.2005 3.44727 12.5586C3.70117 12.9167 4.01693 13.1999 4.39453 13.4082C4.77214 13.61 5.21159 13.7109 5.71289 13.7109C6.20768 13.7109 6.64062 13.61 7.01172 13.4082C7.38932 13.1999 7.70182 12.9167 7.94922 12.5586C8.19661 12.2005 8.38216 11.7904 8.50586 11.3281C8.63607 10.8594 8.70117 10.3613 8.70117 9.83398V9.60938C8.70117 9.08854 8.63607 8.59701 8.50586 8.13477C8.38216 7.66602 8.19336 7.2526 7.93945 6.89453C7.69206 6.52995 7.37956 6.24349 7.00195 6.03516C6.63086 5.82682 6.19466 5.72266 5.69336 5.72266C5.19857 5.72266 4.76237 5.82682 4.38477 6.03516C4.01367 6.24349 3.70117 6.52995 3.44727 6.89453C3.19987 7.2526 3.01432 7.66602 2.89062 8.13477C2.76693 8.59701 2.70508 9.08854 2.70508 9.60938ZM19.9512 9.01367V10.4785H14.3652V9.01367H19.9512ZM14.7461 4.43359V15H12.9395V4.43359H14.7461ZM21.416 4.43359V15H19.5996V4.43359H21.416ZM31.3867 4.43359V5.92773H26.2793V4.43359H31.3867ZM32.9785 4.43359V15H31.1719V4.43359H32.9785ZM25.8398 4.43359H27.6562L27.3828 9.53125C27.3372 10.319 27.2624 11.0156 27.1582 11.6211C27.0605 12.2201 26.9238 12.7344 26.748 13.1641C26.5788 13.5938 26.3639 13.9453 26.1035 14.2188C25.8496 14.4857 25.5436 14.6842 25.1855 14.8145C24.8275 14.9382 24.4141 15 23.9453 15H23.3789V13.4082L23.7695 13.3789C24.0495 13.3594 24.2871 13.2943 24.4824 13.1836C24.6842 13.0729 24.8535 12.9102 24.9902 12.6953C25.127 12.474 25.2376 12.1908 25.3223 11.8457C25.4134 11.5007 25.4818 11.0905 25.5273 10.6152C25.5794 10.14 25.6185 9.58659 25.6445 8.95508L25.8398 4.43359ZM42.1191 13.1934V7.75391C42.1191 7.33724 42.0345 6.97591 41.8652 6.66992C41.7025 6.35742 41.4551 6.11654 41.123 5.94727C40.791 5.77799 40.3809 5.69336 39.8926 5.69336C39.4368 5.69336 39.0365 5.77148 38.6914 5.92773C38.3529 6.08398 38.0859 6.28906 37.8906 6.54297C37.7018 6.79688 37.6074 7.07031 37.6074 7.36328H35.8008C35.8008 6.98568 35.8984 6.61133 36.0938 6.24023C36.2891 5.86914 36.569 5.53385 36.9336 5.23438C37.3047 4.92839 37.7474 4.6875 38.2617 4.51172C38.7826 4.32943 39.362 4.23828 40 4.23828C40.7682 4.23828 41.4453 4.36849 42.0312 4.62891C42.6237 4.88932 43.0859 5.2832 43.418 5.81055C43.7565 6.33138 43.9258 6.98568 43.9258 7.77344V12.6953C43.9258 13.0469 43.9551 13.4212 44.0137 13.8184C44.0788 14.2155 44.1732 14.5573 44.2969 14.8438V15H42.4121C42.321 14.7917 42.2493 14.515 42.1973 14.1699C42.1452 13.8184 42.1191 13.4928 42.1191 13.1934ZM42.4316 8.59375L42.4512 9.86328H40.625C40.1107 9.86328 39.6517 9.9056 39.248 9.99023C38.8444 10.0684 38.5059 10.1888 38.2324 10.3516C37.959 10.5143 37.7507 10.7194 37.6074 10.9668C37.4642 11.2077 37.3926 11.4909 37.3926 11.8164C37.3926 12.1484 37.4674 12.4512 37.6172 12.7246C37.7669 12.998 37.9915 13.2161 38.291 13.3789C38.597 13.5352 38.9714 13.6133 39.4141 13.6133C39.9674 13.6133 40.4557 13.4961 40.8789 13.2617C41.3021 13.0273 41.6374 12.7409 41.8848 12.4023C42.1387 12.0638 42.2754 11.735 42.2949 11.416L43.0664 12.2852C43.0208 12.5586 42.8971 12.8613 42.6953 13.1934C42.4935 13.5254 42.2233 13.8444 41.8848 14.1504C41.5527 14.4499 41.1556 14.7005 40.6934 14.9023C40.2376 15.0977 39.7233 15.1953 39.1504 15.1953C38.4342 15.1953 37.806 15.0553 37.2656 14.7754C36.7318 14.4954 36.3151 14.1211 36.0156 13.6523C35.7227 13.1771 35.5762 12.6465 35.5762 12.0605C35.5762 11.4941 35.6868 10.9961 35.9082 10.5664C36.1296 10.1302 36.4486 9.76888 36.8652 9.48242C37.2819 9.18945 37.7832 8.9681 38.3691 8.81836C38.9551 8.66862 39.6094 8.59375 40.332 8.59375H42.4316ZM48.7207 12.1387L53.5938 4.43359H55.4102V15H53.5938V7.29492L48.7207 15H46.9238V4.43359H48.7207V12.1387ZM52.6074 0.605469H54.0723C54.0723 1.11328 53.9551 1.56576 53.7207 1.96289C53.4863 2.35352 53.151 2.65951 52.7148 2.88086C52.2786 3.10221 51.7611 3.21289 51.1621 3.21289C50.2572 3.21289 49.541 2.97201 49.0137 2.49023C48.4928 2.00195 48.2324 1.3737 48.2324 0.605469H49.6973C49.6973 0.989583 49.8079 1.32812 50.0293 1.62109C50.2507 1.91406 50.6283 2.06055 51.1621 2.06055C51.6829 2.06055 52.054 1.91406 52.2754 1.62109C52.4967 1.32812 52.6074 0.989583 52.6074 0.605469ZM65.4785 9.01367V10.4785H59.8926V9.01367H65.4785ZM60.2734 4.43359V15H58.4668V4.43359H60.2734ZM66.9434 4.43359V15H65.127V4.43359H66.9434ZM73.6133 8.21289V9.69727H68.8477V8.21289H73.6133ZM77.3438 4.43359V15H75.5371V4.43359H77.3438ZM84.2773 4.43359L79.2676 10.4883H76.7383L76.4648 8.90625H78.5352L82.0801 4.43359H84.2773ZM82.334 15L78.4473 10.2148L79.6094 8.90625L84.6289 15H82.334ZM89.1699 13.9062L92.1094 4.43359H94.043L89.8047 16.6309C89.707 16.8913 89.5768 17.1712 89.4141 17.4707C89.2578 17.7767 89.056 18.0664 88.8086 18.3398C88.5612 18.6133 88.2617 18.8346 87.9102 19.0039C87.5651 19.1797 87.1517 19.2676 86.6699 19.2676C86.5267 19.2676 86.3444 19.248 86.123 19.209C85.9017 19.1699 85.7454 19.1374 85.6543 19.1113L85.6445 17.6465C85.6966 17.653 85.778 17.6595 85.8887 17.666C86.0059 17.679 86.0872 17.6855 86.1328 17.6855C86.543 17.6855 86.8913 17.6302 87.1777 17.5195C87.4642 17.4154 87.7051 17.2363 87.9004 16.9824C88.1022 16.735 88.2747 16.3932 88.418 15.957L89.1699 13.9062ZM87.0117 4.43359L89.7559 12.6367L90.2246 14.541L88.9258 15.2051L85.0391 4.43359H87.0117ZM97.4805 6.46484V19.0625H95.6641V4.43359H97.3242L97.4805 6.46484ZM104.6 9.62891V9.83398C104.6 10.6022 104.508 11.3151 104.326 11.9727C104.144 12.6237 103.877 13.1901 103.525 13.6719C103.18 14.1536 102.754 14.528 102.246 14.7949C101.738 15.0618 101.156 15.1953 100.498 15.1953C99.8275 15.1953 99.235 15.0846 98.7207 14.8633C98.2064 14.6419 97.7702 14.3197 97.4121 13.8965C97.054 13.4733 96.7676 12.9655 96.5527 12.373C96.3444 11.7806 96.2012 11.1133 96.123 10.3711V9.27734C96.2012 8.49609 96.3477 7.79622 96.5625 7.17773C96.7773 6.55924 97.0605 6.0319 97.4121 5.5957C97.7702 5.15299 98.2031 4.81771 98.7109 4.58984C99.2188 4.35547 99.8047 4.23828 100.469 4.23828C101.133 4.23828 101.722 4.36849 102.236 4.62891C102.751 4.88281 103.184 5.2474 103.535 5.72266C103.887 6.19792 104.15 6.76758 104.326 7.43164C104.508 8.08919 104.6 8.82161 104.6 9.62891ZM102.783 9.83398V9.62891C102.783 9.10156 102.728 8.60677 102.617 8.14453C102.507 7.67578 102.334 7.26562 102.1 6.91406C101.872 6.55599 101.579 6.27604 101.221 6.07422C100.863 5.86589 100.436 5.76172 99.9414 5.76172C99.4857 5.76172 99.0885 5.83984 98.75 5.99609C98.418 6.15234 98.1348 6.36393 97.9004 6.63086C97.666 6.89128 97.474 7.19076 97.3242 7.5293C97.181 7.86133 97.0736 8.20638 97.002 8.56445V11.0938C97.1322 11.5495 97.3145 11.9792 97.5488 12.3828C97.7832 12.7799 98.0957 13.1022 98.4863 13.3496C98.877 13.5905 99.3685 13.7109 99.9609 13.7109C100.449 13.7109 100.869 13.61 101.221 13.4082C101.579 13.1999 101.872 12.9167 102.1 12.5586C102.334 12.2005 102.507 11.7904 102.617 11.3281C102.728 10.8594 102.783 10.3613 102.783 9.83398ZM111.133 13.7109C111.562 13.7109 111.96 13.623 112.324 13.4473C112.689 13.2715 112.988 13.0306 113.223 12.7246C113.457 12.4121 113.59 12.0573 113.623 11.6602H115.342C115.309 12.2852 115.098 12.8678 114.707 13.4082C114.323 13.9421 113.818 14.375 113.193 14.707C112.568 15.0326 111.882 15.1953 111.133 15.1953C110.339 15.1953 109.645 15.0553 109.053 14.7754C108.467 14.4954 107.979 14.1113 107.588 13.623C107.204 13.1348 106.914 12.5749 106.719 11.9434C106.53 11.3053 106.436 10.6315 106.436 9.92188V9.51172C106.436 8.80208 106.53 8.13151 106.719 7.5C106.914 6.86198 107.204 6.29883 107.588 5.81055C107.979 5.32227 108.467 4.93815 109.053 4.6582C109.645 4.37826 110.339 4.23828 111.133 4.23828C111.96 4.23828 112.682 4.40755 113.301 4.74609C113.919 5.07812 114.404 5.53385 114.756 6.11328C115.114 6.6862 115.309 7.33724 115.342 8.06641H113.623C113.59 7.63021 113.467 7.23633 113.252 6.88477C113.044 6.5332 112.757 6.25326 112.393 6.04492C112.035 5.83008 111.615 5.72266 111.133 5.72266C110.579 5.72266 110.114 5.83333 109.736 6.05469C109.365 6.26953 109.069 6.5625 108.848 6.93359C108.633 7.29818 108.477 7.70508 108.379 8.1543C108.288 8.59701 108.242 9.04948 108.242 9.51172V9.92188C108.242 10.3841 108.288 10.8398 108.379 11.2891C108.47 11.7383 108.623 12.1452 108.838 12.5098C109.059 12.8743 109.355 13.1673 109.727 13.3887C110.104 13.6035 110.573 13.7109 111.133 13.7109Z" fill="black"/>
</svg>
